HIERARCHY
ROOT hip
{
  OFFSET 0 0 0
  CHANNELS 6 Xposition Yposition Zposition Zrotation Yrotation Xrotation
  JOINT abdomen
  {
    OFFSET 0 20.6881 -0.73152
    CHANNELS 3 Zrotation Xrotation Yrotation
    JOINT chest
    {
      OFFSET 0 11.7043 -0.48768
      CHANNELS 3 Zrotation Xrotation Yrotation
      JOINT neck
      {
        OFFSET 0 22.1894 -2.19456
        CHANNELS 3 Zrotation Xrotation Yrotation
        JOINT head
        {
          OFFSET -0.24384 7.07133 1.2192
          CHANNELS 3 Zrotation Xrotation Yrotation
          JOINT leftEye
          {
            OFFSET 4.14528 8.04674 8.04672
            CHANNELS 3 Zrotation Xrotation Yrotation
            End Site
            {
              OFFSET 1 0 0
            }
          }
          JOINT rightEye
          {
            OFFSET -3.6576 8.04674 8.04672
            CHANNELS 3 Zrotation Xrotation Yrotation
            End Site
            {
              OFFSET 1 0 0
            }
          }
        }
      }
      JOINT rCollar
      {
        OFFSET -2.68224 19.2634 -4.8768
        CHANNELS 3 Zrotation Xrotation Yrotation
        JOINT rShldr
        {
          OFFSET -8.77824 -1.95073 1.46304
          CHANNELS 3 Zrotation Xrotation Yrotation
          JOINT rForeArm
          {
            OFFSET -28.1742 -1.7115 0.48768
            CHANNELS 3 Zrotation Xrotation Yrotation
            JOINT rHand
            {
              OFFSET -22.5879 0.773209 7.07136
              CHANNELS 3 Zrotation Xrotation Yrotation
              JOINT rThumb1
              {
                OFFSET -1.2192 -0.487915 3.41376
                CHANNELS 3 Zrotation Xrotation Yrotation
                JOINT rThumb2
                {
                  OFFSET -3.37035 -0.52449 3.41376
                  CHANNELS 3 Zrotation Xrotation Yrotation
                  End Site
                  {
                    OFFSET -1.78271 -1.18214 1.43049
                  }
                }
              }
              JOINT rIndex1
              {
                OFFSET -7.75947 0.938293 5.60832
                CHANNELS 3 Zrotation Xrotation Yrotation
                JOINT rIndex2
                {
                  OFFSET -2.54057 -0.884171 1.56538
                  CHANNELS 3 Zrotation Xrotation Yrotation
                  End Site
                  {
                    OFFSET -1.62519 -0.234802 1.16502
                  }
                }
              }
              JOINT rMid1
              {
                OFFSET -8.24714 1.18213 3.41376
                CHANNELS 3 Zrotation Xrotation Yrotation
                JOINT rMid2
                {
                  OFFSET -3.10165 -0.590103 1.0647
                  CHANNELS 3 Zrotation Xrotation Yrotation
                  End Site
                  {
                    OFFSET -2.48547 -0.328903 0.83742
                  }
                }
              }
              JOINT rRing1
              {
                OFFSET -8.82822 0.546677 1.51678
                CHANNELS 3 Zrotation Xrotation Yrotation
                JOINT rRing2
                {
                  OFFSET -2.60934 -0.819778 -0.0198488
                  CHANNELS 3 Zrotation Xrotation Yrotation
                  End Site
                  {
                    OFFSET -2.33842 -0.294052 0.168128
                  }
                }
              }
              JOINT rPinky1
              {
                OFFSET -8.27202 -0.0477905 -0.4584
                CHANNELS 3 Zrotation Xrotation Yrotation
                JOINT rPinky2
                {
                  OFFSET -1.82734 -0.647385 -0.700984
                  CHANNELS 3 Zrotation Xrotation Yrotation
                  End Site
                  {
                    OFFSET -1.69225 -0.51767 -0.607171
                  }
                }
              }
            }
          }
        }
      }
      JOINT lCollar
      {
        OFFSET 2.68224 19.2634 -4.8768
        CHANNELS 3 Zrotation Xrotation Yrotation
        JOINT lShldr
        {
          OFFSET 8.77824 -1.95073 1.46304
          CHANNELS 3 Zrotation Xrotation Yrotation
          JOINT lForeArm
          {
            OFFSET 28.1742 -1.7115 0.48768
            CHANNELS 3 Zrotation Xrotation Yrotation
            JOINT lHand
            {
              OFFSET 22.5879 0.773209 7.07136
              CHANNELS 3 Zrotation Xrotation Yrotation
              JOINT lThumb1
              {
                OFFSET 1.2192 -0.487915 3.41376
                CHANNELS 3 Zrotation Xrotation Yrotation
                JOINT lThumb2
                {
                  OFFSET 3.37035 -0.52449 3.41376
                  CHANNELS 3 Zrotation Xrotation Yrotation
                  End Site
                  {
                    OFFSET 1.78271 -1.18214 1.43049
                  }
                }
              }
              JOINT lIndex1
              {
                OFFSET 7.75947 0.938293 5.60832
                CHANNELS 3 Zrotation Xrotation Yrotation
                JOINT lIndex2
                {
                  OFFSET 2.54057 -0.884171 1.56538
                  CHANNELS 3 Zrotation Xrotation Yrotation
                  End Site
                  {
                    OFFSET 1.62519 -0.234802 1.16502
                  }
                }
              }
              JOINT lMid1
              {
                OFFSET 8.24714 1.18213 3.41376
                CHANNELS 3 Zrotation Xrotation Yrotation
                JOINT lMid2
                {
                  OFFSET 3.10165 -0.590103 1.0647
                  CHANNELS 3 Zrotation Xrotation Yrotation
                  End Site
                  {
                    OFFSET 2.48547 -0.328903 0.83742
                  }
                }
              }
              JOINT lRing1
              {
                OFFSET 8.82822 0.546677 1.51678
                CHANNELS 3 Zrotation Xrotation Yrotation
                JOINT lRing2
                {
                  OFFSET 2.60934 -0.819778 -0.0198488
                  CHANNELS 3 Zrotation Xrotation Yrotation
                  End Site
                  {
                    OFFSET 2.33842 -0.294052 0.168128
                  }
                }
              }
              JOINT lPinky1
              {
                OFFSET 8.27202 -0.0477905 -0.4584
                CHANNELS 3 Zrotation Xrotation Yrotation
                JOINT lPinky2
                {
                  OFFSET 1.82734 -0.647385 -0.700984
                  CHANNELS 3 Zrotation Xrotation Yrotation
                  End Site
                  {
                    OFFSET 1.69225 -0.51767 -0.607171
                  }
                }
              }
            }
          }
        }
      }
    }
  }
  JOINT rButtock
  {
    OFFSET -8.77824 4.35084 1.2192
    CHANNELS 3 Zrotation Xrotation Yrotation
    JOINT rThigh
    {
      OFFSET 0 -1.70687 -2.19456
      CHANNELS 3 Zrotation Xrotation Yrotation
      JOINT rShin
      {
        OFFSET 0 -36.8199 0.73152
        CHANNELS 3 Zrotation Xrotation Yrotation
        JOINT rFoot
        {
          OFFSET 0.73152 -45.1104 -5.12064
          CHANNELS 3 Zrotation Xrotation Yrotation
          End Site
          {
            OFFSET -1.1221 -3.69964 12.103
          }
        }
      }
    }
  }
  JOINT lButtock
  {
    OFFSET 8.77824 4.35084 1.2192
    CHANNELS 3 Zrotation Xrotation Yrotation
    JOINT lThigh
    {
      OFFSET 0 -1.70687 -2.19456
      CHANNELS 3 Zrotation Xrotation Yrotation
      JOINT lShin
      {
        OFFSET 0 -36.8199 0.73152
        CHANNELS 3 Zrotation Xrotation Yrotation
        JOINT lFoot
        {
          OFFSET -0.73152 -45.1104 -5.12064
          CHANNELS 3 Zrotation Xrotation Yrotation
          End Site
          {
            OFFSET 1.1221 -3.69964 12.103
          }
        }
      }
    }
  }
}
MOTION
Frames:	7
Frame Time:	0.00833333
51.74 85.5683 28.9588 530.83 80.8067 525.134 0.275118 4.70811 9.57412 -0.661185 1.90407 3.05801 -1.25708 -7.74941 -3.37184 2.74662 -4.19391 -6.0683 -0.0 0.0 0.0 -0.0 0.0 0.0 -8.9428e-14 -4.72091e-13 -3.25159e-13 52.942 33.2224 17.6677 -28.3957 -34.2207 74.0682 -0.075579 -7.82334 -1.10644 4.15697e-10 3.95302e-10 8.56739e-10 7.15062e-10 6.88528e-10 1.48254e-09 4.157e-10 3.95307e-10 8.56736e-10 7.73091 5.47488 0.417314 4.15695e-10 3.95311e-10 8.56738e-10 2.90554 0.965183 0.102902 4.15698e-10 3.9531e-10 8.56741e-10 10.2786 0.731801 0.0259123 4.15697e-10 3.95311e-10 8.56748e-10 2.22167 -0.733487 -0.20892 -8.94837e-14 -4.72092e-13 -3.25306e-13 -67.7308 3.6189 31.7746 14.5127 -7.37726 -26.588 0.286592 -15.0556 2.16657 -6.11786e-10 -1.92174e-09 -1.08754e-09 -1.03712e-09 -3.31832e-09 -1.89069e-09 -6.11797e-10 -1.92174e-09 -1.08753e-09 -7.73091 5.47488 -0.417314 -6.11794e-10 -1.92175e-09 -1.08755e-09 -2.90554 0.965183 -0.102902 -6.11789e-10 -1.92174e-09 -1.08754e-09 -10.2786 0.731801 -0.0259123 -6.11783e-10 -1.92174e-09 -1.08755e-09 -2.22167 -0.733487 0.20892 -2.03217e-16 0.0 -3.88251e-19 5.0843 10.1685 -12.6096 0.0127441 15.6253 0.541042 -2.4047 -24.5228 -5.00993 2.03217e-16 0.0 3.88251e-19 11.6394 -7.59075 8.84641 0.165874 27.553 -0.680303 1.86611 -12.6455 4.46689
51.9511 85.5473 29.0776 526.593 80.9707 521.114 0.478656 4.92321 9.84474 -0.694053 1.8736 3.12906 -1.16987 -7.71969 -3.33122 2.70673 -4.14045 -6.0237 -0.0 0.0 0.0 -0.0 0.0 0.0 -1.03971e-13 -5.37662e-13 -3.59303e-13 52.3667 33.3982 18.5244 -28.3838 -33.984 73.6736 -0.0831271 -8.19718 -1.16004 4.33557e-10 2.46941e-10 7.05969e-10 7.46091e-10 4.31751e-10 1.22167e-09 4.33556e-10 2.46949e-10 7.05969e-10 7.73091 5.47488 0.417314 4.33554e-10 2.46951e-10 7.05965e-10 2.90554 0.965183 0.102902 4.33557e-10 2.46951e-10 7.05971e-10 10.2786 0.731801 0.0259123 4.33558e-10 2.46952e-10 7.05978e-10 2.22167 -0.733487 -0.20892 -1.04014e-13 -5.37663e-13 -3.59452e-13 -68.7269 4.60089 31.8383 14.663 -7.50196 -26.8976 0.29389 -15.2472 2.19544 -5.46982e-10 -1.86782e-09 -1.05572e-09 -9.2576e-10 -3.22472e-09 -1.83468e-09 -5.46991e-10 -1.86783e-09 -1.05572e-09 -7.73091 5.47488 -0.417314 -5.46991e-10 -1.86784e-09 -1.05573e-09 -2.90554 0.965183 -0.102902 -5.46983e-10 -1.86783e-09 -1.05572e-09 -10.2786 0.731801 -0.0259123 -5.46979e-10 -1.86782e-09 -1.05573e-09 -2.22167 -0.733487 0.20892 -2.03217e-16 0.0 -3.88251e-19 5.23562 10.2133 -12.4294 0.0167266 15.4362 0.565015 -2.30232 -24.4531 -4.73045 2.03217e-16 0.0 3.88251e-19 10.803 -8.63356 8.4916 0.165422 27.5199 -0.680774 1.52954 -12.5611 3.41121
52.1491 85.5152 29.362 526.311 81.4673 521.037 1.13486 5.0677 10.1626 -0.82976 1.88994 3.21964 -1.002 -7.66933 -3.26029 2.59104 -4.11325 -5.95358 -0.0 0.0 0.0 -0.0 0.0 0.0 -1.08528e-13 -5.05028e-13 -2.99083e-13 51.9471 33.542 19.2943 -28.3673 -33.7159 73.2344 -0.0898887 -8.52151 -1.20662 2.23583e-10 5.29409e-10 8.36573e-10 3.81788e-10 9.19337e-10 1.44558e-09 2.2358e-10 5.29418e-10 8.36571e-10 7.73091 5.47488 0.417314 2.23579e-10 5.29417e-10 8.36569e-10 2.90554 0.965183 0.102902 2.23584e-10 5.29419e-10 8.36574e-10 10.2786 0.731801 0.0259123 2.23583e-10 5.29418e-10 8.36581e-10 2.22167 -0.733487 -0.20892 -1.0857e-13 -5.05029e-13 -2.9923e-13 -69.6463 5.54232 31.8069 14.7102 -7.5404 -26.9973 0.28601 -15.0339 2.16335 -1.47832e-10 -1.17703e-09 -6.89688e-10 -2.41033e-10 -2.02862e-09 -1.19663e-09 -1.47838e-10 -1.17703e-09 -6.8968e-10 -7.73091 5.47488 -0.417314 -1.47839e-10 -1.17704e-09 -6.89691e-10 -2.90554 0.965183 -0.102902 -1.47834e-10 -1.17703e-09 -6.89686e-10 -10.2786 0.731801 -0.0259123 -1.47829e-10 -1.17703e-09 -6.89691e-10 -2.22167 -0.733487 0.20892 -2.03217e-16 0.0 -3.88251e-19 5.74579 10.1281 -12.3065 0.0203157 15.2773 0.586257 -2.13995 -24.2858 -4.3178 2.03217e-16 0.0 3.88251e-19 10.4662 -9.71402 8.41453 0.165834 27.5975 -0.683024 1.24031 -12.5963 2.48682
52.321 85.4868 29.8503 531.943 82.2476 526.863 2.10183 5.16949 10.5145 -1.03084 1.93704 3.32403 -0.782189 -7.60019 -3.16561 2.42592 -4.10387 -5.8586 -0.0 0.0 0.0 -0.0 0.0 0.0 -1.07917e-13 -4.08872e-13 -1.77642e-13 51.6361 33.6711 20.0097 -28.3437 -33.4109 72.7485 -0.0971427 -8.85365 -1.25441 -1.56105e-10 1.11173e-09 1.17443e-09 -2.77084e-10 1.92496e-09 2.02649e-09 -1.56106e-10 1.11174e-09 1.17443e-09 7.73091 5.47488 0.417314 -1.56108e-10 1.11174e-09 1.17443e-09 2.90554 0.965183 0.102902 -1.56099e-10 1.11174e-09 1.17443e-09 10.2786 0.731801 0.0259123 -1.56104e-10 1.11174e-09 1.17444e-09 2.22167 -0.733487 -0.20892 -1.07964e-13 -4.08874e-13 -1.77785e-13 -70.5216 6.47232 31.7083 14.6808 -7.51564 -26.9372 0.266502 -14.5004 2.08326 4.93132e-10 -2.36772e-11 -7.71197e-11 8.58322e-10 -3.18939e-11 -1.29328e-10 4.9313e-10 -2.36757e-11 -7.71091e-11 -7.73091 5.47488 -0.417314 4.93129e-10 -2.36802e-11 -7.71164e-11 -2.90554 0.965183 -0.102902 4.93129e-10 -2.36752e-11 -7.71151e-11 -10.2786 0.731801 -0.0259123 4.93133e-10 -2.36732e-11 -7.71191e-11 -2.22167 -0.733487 0.20892 -2.03217e-16 0.0 -3.88251e-19 6.51 9.96036 -12.2132 0.0236516 15.1339 0.605537 -1.94424 -24.0514 -3.82551 2.03217e-16 0.0 3.88251e-19 10.4909 -10.8108 8.52887 0.166791 27.7467 -0.686613 0.984347 -12.7167 1.66679
52.4955 85.4566 30.2684 536.039 82.8848 531.18 3.09334 5.26176 10.9025 -1.23657 1.98228 3.43927 -0.591132 -7.52437 -3.07453 2.29395 -4.0672 -5.75797 -0.0 0.0 0.0 -0.0 0.0 0.0 -1.03236e-13 -2.9527e-13 -4.44715e-14 51.3527 33.8268 20.7016 -28.3143 -33.0677 72.1958 -0.104921 -9.19681 -1.30387 -5.50768e-10 1.66586e-09 1.46722e-09 -9.61364e-10 2.88138e-09 2.52937e-09 -5.50769e-10 1.66587e-09 1.46721e-09 7.73091 5.47488 0.417314 -5.50771e-10 1.66587e-09 1.46721e-09 2.90554 0.965183 0.102902 -5.50759e-10 1.66587e-09 1.46721e-09 10.2786 0.731801 0.0259123 -5.50768e-10 1.66587e-09 1.46722e-09 2.22167 -0.733487 -0.20892 -1.03293e-13 -2.95272e-13 -4.46136e-14 -71.3267 7.29344 31.6009 14.6102 -7.45684 -26.7915 0.238877 -13.7362 1.96905 1.13553e-09 1.23456e-09 5.82784e-10 1.95975e-09 2.14619e-09 1.01984e-09 1.13553e-09 1.23456e-09 5.82797e-10 -7.73091 5.47488 -0.417314 1.13553e-09 1.23456e-09 5.82793e-10 -2.90554 0.965183 -0.102902 1.13552e-09 1.23457e-09 5.82791e-10 -10.2786 0.731801 -0.0259123 1.13553e-09 1.23457e-09 5.82788e-10 -2.22167 -0.733487 0.20892 -2.03217e-16 0.0 -3.88251e-19 7.27839 9.79195 -12.1353 0.0268399 15.0072 0.62404 -1.71845 -23.7589 -3.25158 2.03217e-16 0.0 3.88251e-19 10.5842 -11.8666 8.78186 0.167801 27.9137 -0.691188 0.76857 -12.8292 0.982747
52.6699 85.4425 30.639 537.507 83.5328 532.869 3.8223 5.37752 11.3287 -1.386 1.99306 3.56242 -0.509313 -7.45399 -3.0144 2.27741 -3.95811 -5.67094 -0.0 0.0 0.0 -0.0 0.0 0.0 -9.55836e-14 -2.10298e-13 5.09386e-14 51.013 34.0489 21.4024 -28.2796 -32.6833 71.5569 -0.113282 -9.55421 -1.35547 -8.05673e-10 1.86375e-09 1.4626e-09 -1.40189e-09 3.22134e-09 2.51915e-09 -8.05672e-10 1.86376e-09 1.46259e-09 7.73091 5.47488 0.417314 -8.05675e-10 1.86375e-09 1.4626e-09 2.90554 0.965183 0.102902 -8.05662e-10 1.86376e-09 1.4626e-09 10.2786 0.731801 0.0259123 -8.05672e-10 1.86375e-09 1.4626e-09 2.22167 -0.733487 -0.20892 -9.56536e-14 -2.10299e-13 5.07895e-14 -72.0397 7.90548 31.5402 14.5336 -7.39323 -26.6341 0.206276 -12.831 1.83436 1.53898e-09 2.23999e-09 1.09083e-09 2.65068e-09 3.88638e-09 1.90346e-09 1.53898e-09 2.24e-09 1.09084e-09 -7.73091 5.47488 -0.417314 1.53899e-09 2.24e-09 1.09084e-09 -2.90554 0.965183 -0.102902 1.53898e-09 2.24e-09 1.09083e-09 -10.2786 0.731801 -0.0259123 1.53898e-09 2.24e-09 1.09083e-09 -2.22167 -0.733487 0.20892 -2.03217e-16 0.0 -3.88251e-19 7.80078 9.70497 -12.0582 0.0299974 14.8984 0.642945 -1.46603 -23.4173 -2.59404 2.03217e-16 0.0 3.88251e-19 10.4485 -12.8248 9.11935 0.168352 28.0449 -0.69638 0.605005 -12.8408 0.467371
52.7052 85.4744 31.3494 549.55 84.3134 545.118 4.14086 5.51947 11.8229 -1.43749 1.9533 3.6996 -0.620851 -7.38962 -3.01143 2.46303 -3.73343 -5.61331 -0.0 0.0 0.0 -0.0 0.0 0.0 -8.35757e-14 -1.69069e-13 9.85529e-14 50.5706 34.3514 22.1135 -28.2333 -32.2416 70.832 -0.12375 -9.99184 -1.41876 -8.83634e-10 1.47895e-09 9.19703e-10 -1.53256e-09 2.55219e-09 1.57952e-09 -8.83634e-10 1.47895e-09 9.19688e-10 7.73091 5.47488 0.417314 -8.83637e-10 1.47895e-09 9.19699e-10 2.90554 0.965183 0.102902 -8.83626e-10 1.47895e-09 9.19697e-10 10.2786 0.731801 0.0259123 -8.83635e-10 1.47894e-09 9.197e-10 2.22167 -0.733487 -0.20892 -8.36659e-14 -1.69069e-13 9.83837e-14 -72.6585 8.27974 31.5254 14.4457 -7.32032 -26.4544 0.166352 -11.6708 1.66283 1.63175e-09 3.10777e-09 1.47714e-09 2.80757e-09 5.38798e-09 2.57278e-09 1.63175e-09 3.10777e-09 1.47716e-09 -7.73091 5.47488 -0.417314 1.63176e-09 3.10777e-09 1.47715e-09 -2.90554 0.965183 -0.102902 1.63174e-09 3.10777e-09 1.47715e-09 -10.2786 0.731801 -0.0259123 1.63175e-09 3.10777e-09 1.47715e-09 -2.22167 -0.733487 0.20892 -2.03217e-16 0.0 -3.88251e-19 7.93931 9.74057 -11.9663 0.0332302 14.8 0.662698 -1.18027 -22.9662 -1.82708 2.03217e-16 0.0 3.88251e-19 9.9366 -13.6526 9.55744 0.168206 28.1189 -0.702357 0.509527 -12.6738 0.159815
